<svg width="131" height="40" viewBox="0 0 131 40" fill="none" xmlns="http://www.w3.org/2000/svg">
<g id="Button GooglePlay White">
<path id="Vector" d="M130.5 34.379C130.5 36.971 128.177 39.1494 125.209 39.1494H5.79086C2.82272 39.1494 0.5 36.971 0.5 34.379V5.91981C0.5 3.3278 2.82272 1.14941 5.79086 1.14941H125.209C128.175 1.14941 130.5 3.32794 130.5 5.91981V34.379Z" fill="white" stroke="black"/>
<g id="PLAY 1">
<path id="Vector_2" d="M13.1001 8.05469V21.2598V34.4649L26.4435 21.2598L13.1001 8.05469Z" fill="url(#paint0_linear_11008_8713)"/>
<path id="Vector_3" d="M30.0257 17.7142L24.6407 14.6093L13.1001 7.95898V8.05456L26.4435 21.2597L30.0257 17.7142Z" fill="url(#paint1_linear_11008_8713)"/>
<path id="Vector_4" d="M13.1001 34.4649V34.5628L24.6407 27.9101L30.0257 24.8076L26.4435 21.2598L13.1001 34.4649Z" fill="url(#paint2_linear_11008_8713)"/>
<path id="Vector_5" d="M30.0256 17.7139L26.4434 21.2593L30.0256 24.8071L36.1812 21.2593L30.0256 17.7139Z" fill="url(#paint3_linear_11008_8713)"/>
</g>
<g id="Group">
<path id="Vector_6" d="M97.0973 26.4233C96.5953 26.4233 96.1399 26.33 95.7242 26.1459C95.3109 25.9617 94.963 25.6773 94.6804 25.2951H94.5963C94.6524 25.7426 94.6804 26.1692 94.6804 26.5701V29.731H93.5151V18.6028H94.4632L94.6244 19.654H94.6804C94.9793 19.2345 95.3296 18.9291 95.7266 18.7426C96.1236 18.5561 96.5813 18.4629 97.095 18.4629C98.1155 18.4629 98.9025 18.8102 99.4582 19.5072C100.014 20.2042 100.29 21.1808 100.29 22.4373C100.29 23.6983 100.007 24.6797 99.4442 25.3766C98.8814 26.0736 98.0991 26.4233 97.0973 26.4233ZM96.9292 19.4512C96.1422 19.4512 95.5748 19.668 95.2245 20.1039C94.8742 20.5375 94.6921 21.2298 94.6827 22.1785V22.4373C94.6827 23.5165 94.8626 24.2881 95.2245 24.7543C95.5841 25.2181 96.1633 25.4512 96.9572 25.4512C97.6228 25.4512 98.1435 25.1832 98.5195 24.6447C98.8954 24.1086 99.0846 23.3673 99.0846 22.4233C99.0846 21.4652 98.8954 20.731 98.5195 20.2181C98.1412 19.7053 97.6111 19.4512 96.9292 19.4512Z" fill="black"/>
<path id="Vector_7" d="M102.989 26.2833H101.824V15.3789H102.989V26.2833Z" fill="black"/>
<path id="Vector_8" d="M109.691 26.2837L109.46 25.1904H109.404C109.021 25.673 108.638 25.997 108.255 26.1671C107.874 26.3373 107.398 26.4235 106.826 26.4235C106.062 26.4235 105.465 26.2277 105.032 25.8338C104.6 25.4422 104.383 24.8828 104.383 24.1601C104.383 22.61 105.626 21.7965 108.11 21.7219L109.416 21.68V21.2044C109.416 20.6007 109.285 20.1555 109.026 19.8688C108.766 19.5821 108.351 19.4375 107.779 19.4375C107.137 19.4375 106.413 19.6333 105.602 20.0273L105.245 19.1368C105.623 18.9317 106.039 18.7709 106.492 18.6543C106.943 18.5378 107.396 18.4795 107.851 18.4795C108.769 18.4795 109.448 18.6823 109.89 19.0902C110.331 19.4958 110.553 20.1485 110.553 21.0459V26.2884H109.691V26.2837ZM107.057 25.4632C107.783 25.4632 108.351 25.265 108.766 24.8688C109.18 24.4725 109.388 23.9154 109.388 23.1998V22.5051L108.222 22.5541C107.295 22.5867 106.627 22.7312 106.219 22.9853C105.81 23.2394 105.605 23.6357 105.605 24.1741C105.605 24.5937 105.733 24.9154 105.988 25.1345C106.242 25.3536 106.599 25.4632 107.057 25.4632Z" fill="black"/>
<path id="Vector_9" d="M111.23 18.6025H112.479L114.165 22.9825C114.534 23.9825 114.765 24.7051 114.854 25.148H114.91C114.971 24.9102 115.099 24.5023 115.293 23.9242C115.487 23.3461 116.122 21.5722 117.199 18.6025H118.448L115.141 27.3485C114.815 28.2133 114.432 28.8263 113.993 29.1876C113.556 29.5489 113.019 29.7307 112.381 29.7307C112.026 29.7307 111.674 29.6911 111.328 29.6119V28.6795C111.585 28.7354 111.875 28.7634 112.192 28.7634C112.993 28.7634 113.563 28.3158 113.906 27.4184L114.333 26.3251L111.23 18.6025Z" fill="black"/>
</g>
<g id="Group_2">
<path id="Vector_10" d="M75.5082 19.3154C75.8772 19.6208 76.6501 20.2641 76.6501 21.4856C76.6501 22.6744 75.9752 23.2361 75.298 23.7676C75.0879 23.9751 74.8473 24.2012 74.8473 24.5555C74.8473 24.9075 75.0879 25.1009 75.2653 25.2455L75.8445 25.6953C76.552 26.2898 77.1966 26.8375 77.1966 27.9448C77.1966 29.4553 75.7324 30.9797 72.9652 30.9797C70.63 30.9797 69.5044 29.8725 69.5044 28.6814C69.5044 28.1033 69.794 27.2851 70.7444 26.721C71.7415 26.1103 73.0936 26.031 73.8175 25.9821C73.591 25.693 73.3341 25.3877 73.3341 24.8912C73.3341 24.6184 73.4159 24.4576 73.4953 24.2641C73.3178 24.2804 73.1403 24.2967 72.9792 24.2967C71.2745 24.2967 70.3077 23.0287 70.3077 21.7746C70.3077 21.0357 70.6463 20.2152 71.3375 19.6208C72.2553 18.8655 73.3505 18.7373 74.2192 18.7373H77.5328L76.503 19.3154H75.5082ZM74.364 26.4483C74.2355 26.4319 74.1538 26.4319 73.995 26.4319C73.8502 26.4319 72.9792 26.4646 72.3043 26.6907C71.9494 26.8189 70.9195 27.2035 70.9195 28.3457C70.9195 29.4856 72.0311 30.3061 73.7521 30.3061C75.2957 30.3061 76.1177 29.5648 76.1177 28.5695C76.12 27.749 75.5876 27.3177 74.364 26.4483ZM74.831 23.397C75.2 23.0263 75.2326 22.5135 75.2326 22.2245C75.2326 21.0683 74.5414 19.2688 73.2057 19.2688C72.7877 19.2688 72.337 19.4786 72.0778 19.8002C71.8046 20.1382 71.7228 20.5718 71.7228 20.9891C71.7228 22.066 72.351 23.8492 73.7358 23.8492C74.1398 23.8469 74.5741 23.6534 74.831 23.397Z" fill="black"/>
<path id="Vector_11" d="M65.3759 26.1918C62.8212 26.1918 61.4551 24.2034 61.4551 22.4062C61.4551 20.306 63.1738 18.5088 65.6164 18.5088C67.9773 18.5088 69.4555 20.3526 69.4555 22.2943C69.4578 24.1871 67.996 26.1918 65.3759 26.1918ZM67.3842 24.8934C67.7695 24.3806 67.8675 23.7396 67.8675 23.1125C67.8675 21.6999 67.1927 19.0076 65.2007 19.0076C64.6707 19.0076 64.1406 19.2174 63.7553 19.5531C63.1294 20.1148 63.015 20.8188 63.015 21.5111C63.015 23.0985 63.802 25.7116 65.7472 25.7116C66.373 25.7093 67.0152 25.4062 67.3842 24.8934Z" fill="black"/>
<path id="Vector_12" d="M56.6654 26.1918C54.1107 26.1918 52.7446 24.2034 52.7446 22.4062C52.7446 20.306 54.4633 18.5088 56.906 18.5088C59.2669 18.5088 60.745 20.3526 60.745 22.2943C60.7474 24.1871 59.2855 26.1918 56.6654 26.1918ZM58.6761 24.8934C59.0614 24.3806 59.1594 23.7396 59.1594 23.1125C59.1594 21.6999 58.4846 19.0076 56.4926 19.0076C55.9625 19.0076 55.4325 19.2174 55.0471 19.5531C54.4213 20.1148 54.3069 20.8188 54.3069 21.5111C54.3069 23.0985 55.0938 25.7116 57.0391 25.7116C57.6626 25.7093 58.3048 25.4062 58.6761 24.8934Z" fill="black"/>
<path id="Vector_13" d="M51.5188 25.9409L49.2092 26.4723C48.2728 26.6169 47.4321 26.7451 46.5448 26.7451C42.0845 26.7451 40.3892 23.4723 40.3892 20.9082C40.3892 17.78 42.7968 14.8779 46.9161 14.8779C47.7894 14.8779 48.6278 15.0061 49.3867 15.2159C50.5987 15.5539 51.1638 15.9735 51.5188 16.2159L50.1783 17.491L49.6132 17.6192L50.0172 16.9735C49.4684 16.442 48.4666 15.4583 46.5611 15.4583C44.0087 15.4583 42.0869 17.3931 42.0869 20.2159C42.0869 23.2462 44.2843 26.1017 47.8058 26.1017C48.8403 26.1017 49.3727 25.8919 49.8584 25.6984V23.104L47.4205 23.2322L48.7118 22.5376H52.1376L51.7172 22.9409C51.6028 23.0388 51.5888 23.0714 51.5561 23.1996C51.5398 23.3441 51.5234 23.8127 51.5234 23.9735V25.9409H51.5188Z" fill="black"/>
<path id="Vector_14" d="M80.613 25.4766C80.0806 25.4276 79.9685 25.3321 79.9685 24.7027V24.5256V15.5745C79.9709 15.5395 79.9732 15.5046 79.9779 15.4696C80.0432 14.9055 80.2044 14.8099 80.7064 14.5186H78.3946L77.1826 15.1013H78.4179V15.1083V15.1036V24.5256V25.0594C78.4179 25.381 78.3549 25.43 77.9813 25.9125H80.8419L81.4397 25.5582C81.1642 25.5256 80.8886 25.5092 80.613 25.4766Z" fill="black"/>
<path id="Vector_15" d="M87.1869 25.6262C87.0117 25.7217 86.8343 25.8359 86.6591 25.9152C86.129 26.1553 85.5826 26.2206 85.1015 26.2206C84.5901 26.2206 83.7868 26.1879 82.9672 25.5959C81.8299 24.794 81.3325 23.4164 81.3325 22.2159C81.3325 19.7334 83.3548 18.5166 85.0058 18.5166C85.5826 18.5166 86.1781 18.6611 86.6591 18.9642C87.4601 19.491 87.6703 20.1809 87.78 20.5492L84.011 22.0714L82.7757 22.1669C83.175 24.1996 84.5551 25.3837 86.08 25.3837C86.8973 25.3837 87.4928 25.0947 88.0369 24.8243L87.1869 25.6262ZM85.6807 20.8523C85.9843 20.7404 86.1454 20.6448 86.1454 20.421C86.1454 19.78 85.4238 19.0434 84.5574 19.0434C83.9153 19.0434 82.7126 19.5399 82.7126 21.2695C82.7126 21.5422 82.7453 21.829 82.7617 22.118L85.6807 20.8523Z" fill="black"/>
<g id="Group_3">
<path id="Vector_16" d="M88.7375 18.6232V19.6792H88.6091V18.6232H88.2588V18.5137H89.0878V18.6232H88.7375Z" fill="black"/>
<path id="Vector_17" d="M90.1785 19.6811V18.6135H90.1715L89.8446 19.6811H89.7442L89.4149 18.6135H89.4102V19.6811H89.2935V18.5156H89.4943L89.7909 19.4573H89.7955L90.0874 18.5156H90.2906V19.6811H90.1785Z" fill="black"/>
</g>
</g>
<g id="Group_4">
<path id="Vector_18" d="M43.5956 11.7396H42.7923C42.7923 11.63 42.7152 11.3177 42.5634 10.8025H41.4052C41.2487 11.3084 41.1693 11.6207 41.1693 11.7396H40.415C40.415 11.6743 40.6112 11.1405 41.0012 10.1359C41.3912 9.13353 41.5873 8.58108 41.5873 8.47852H42.5354C42.5354 8.57409 42.7129 9.11721 43.0655 10.1125C43.4205 11.1056 43.5956 11.6487 43.5956 11.7396ZM42.4373 10.3247C42.1524 9.4622 42.0076 8.99833 42.0076 8.9284H41.968C41.968 8.99367 41.8208 9.45987 41.5243 10.3247H42.4373Z" fill="black"/>
<path id="Vector_19" d="M46.8324 11.7396H46.2135C46.2135 11.672 45.9847 11.3107 45.5246 10.6557C45.0436 9.9657 44.768 9.49483 44.7026 9.24075H44.6629C44.705 9.60672 44.726 9.93772 44.726 10.2314C44.726 10.644 44.7377 11.1452 44.761 11.7396H44.1445C44.1702 11.2221 44.1819 10.6533 44.1819 10.0333C44.1819 9.4249 44.1702 8.90509 44.1445 8.47852H44.8895C44.8895 8.56709 45.095 8.91908 45.5083 9.53679C45.9473 10.1918 46.1995 10.637 46.2649 10.8725H46.3023C46.2626 10.4995 46.2415 10.1662 46.2415 9.87012C46.2415 9.41791 46.2299 8.95404 46.2065 8.47852H46.8347C46.8113 8.89343 46.7997 9.41092 46.7997 10.0333C46.7973 10.6603 46.8067 11.2291 46.8324 11.7396Z" fill="black"/>
<path id="Vector_20" d="M50.4682 9.99631C50.4682 10.4695 50.3164 10.8844 50.0105 11.2387C49.7069 11.593 49.2796 11.7702 48.7308 11.7702C48.4833 11.7702 48.1424 11.7609 47.708 11.7399C47.729 11.2364 47.7407 10.6676 47.7407 10.0336C47.7407 9.42522 47.729 8.90773 47.708 8.47883H48.147C48.2194 8.47883 48.3268 8.4765 48.4693 8.47184C48.6117 8.46718 48.7051 8.46484 48.7472 8.46484C49.352 8.46484 49.7887 8.61403 50.0596 8.91473C50.3305 9.21543 50.4682 9.5744 50.4682 9.99631ZM49.7817 10.1035C49.7817 9.78186 49.6883 9.5138 49.5015 9.29235C49.3146 9.07324 49.0274 8.96368 48.6444 8.96368C48.572 8.96368 48.474 8.97067 48.3479 8.98699C48.3642 9.32032 48.3735 9.66997 48.3735 10.0336C48.3735 10.4322 48.3829 10.8285 48.3992 11.2201C48.509 11.2411 48.6164 11.2527 48.7262 11.2527C49.0858 11.2527 49.352 11.1408 49.5248 10.9194C49.6953 10.6956 49.7817 10.4252 49.7817 10.1035Z" fill="black"/>
<path id="Vector_21" d="M53.8192 11.7395H53.0766C52.8828 11.1474 52.7334 10.7838 52.6306 10.6463C52.5279 10.5088 52.3597 10.4388 52.1285 10.4388C52.0305 10.4388 51.9394 10.4388 51.8507 10.4412C51.8507 10.8701 51.8577 11.3036 51.874 11.7419H51.1758C51.1968 11.2384 51.2085 10.6696 51.2085 10.0356C51.2085 9.42717 51.1968 8.90969 51.1758 8.48078H51.6101C51.6592 8.48078 51.7643 8.47845 51.9254 8.47379C52.0842 8.46913 52.2336 8.4668 52.3691 8.4668C53.1374 8.4668 53.5203 8.72787 53.5203 9.25234C53.5203 9.66726 53.3008 9.95864 52.8641 10.1218V10.1591C53.0323 10.2057 53.1817 10.3363 53.3078 10.553C53.4316 10.7675 53.6044 11.1614 53.8192 11.7395ZM52.8781 9.43416C52.8781 9.10316 52.6633 8.93533 52.236 8.93533C52.0795 8.93533 51.9394 8.94698 51.8203 8.97029C51.839 9.22903 51.8483 9.56703 51.8483 9.98195C51.9394 9.98428 52.0188 9.98661 52.0818 9.98661C52.6119 9.98894 52.8781 9.80479 52.8781 9.43416Z" fill="black"/>
<path id="Vector_22" d="M57.4153 10.0477C57.4153 10.5605 57.2588 10.9847 56.9436 11.3227C56.6283 11.6607 56.2407 11.8285 55.776 11.8285C55.3346 11.8285 54.9656 11.6747 54.6667 11.3647C54.3702 11.0546 54.2207 10.6607 54.2207 10.1852C54.2207 9.67236 54.3772 9.24812 54.6924 8.91012C55.0077 8.57213 55.3953 8.4043 55.86 8.4043C56.3014 8.4043 56.6703 8.55814 56.9692 8.86817C57.2658 9.17586 57.4153 9.5698 57.4153 10.0477ZM56.724 10.1222C56.724 9.7726 56.6353 9.49054 56.4555 9.27376C56.2757 9.05698 56.0562 8.94742 55.7923 8.94742C55.5471 8.94742 55.3416 9.05698 55.1711 9.27609C55.0007 9.49521 54.9143 9.77026 54.9143 10.1059C54.9143 10.4532 55.003 10.7353 55.1828 10.9544C55.3626 11.1712 55.5821 11.2808 55.8437 11.2808C56.0889 11.2808 56.2944 11.1712 56.4648 10.9521C56.6376 10.7283 56.724 10.4532 56.724 10.1222Z" fill="black"/>
<path id="Vector_23" d="M58.833 11.7396H58.123C58.1441 11.2221 58.1557 10.6533 58.1557 10.0333C58.1557 9.4249 58.1441 8.90509 58.123 8.47852H58.833C58.8119 8.8981 58.8003 9.41791 58.8003 10.0333C58.8003 10.6627 58.8119 11.2314 58.833 11.7396Z" fill="black"/>
<path id="Vector_24" d="M62.4687 9.99631C62.4687 10.4695 62.3169 10.8844 62.011 11.2387C61.7074 11.593 61.2801 11.7702 60.7313 11.7702C60.4838 11.7702 60.1428 11.7609 59.7085 11.7399C59.7295 11.2364 59.7412 10.6676 59.7412 10.0336C59.7412 9.42522 59.7295 8.90773 59.7085 8.47883H60.1475C60.2199 8.47883 60.3273 8.4765 60.4698 8.47184C60.6122 8.46718 60.7056 8.46484 60.7477 8.46484C61.3501 8.46484 61.7892 8.61403 62.06 8.91473C62.3333 9.21543 62.4687 9.5744 62.4687 9.99631ZM61.7845 10.1035C61.7845 9.78186 61.6911 9.5138 61.5043 9.29235C61.3174 9.07324 61.0302 8.96368 60.6472 8.96368C60.5749 8.96368 60.4768 8.97067 60.3507 8.98699C60.367 9.32032 60.3764 9.66997 60.3764 10.0336C60.3764 10.4322 60.3857 10.8285 60.4021 11.2201C60.5118 11.2411 60.6192 11.2527 60.729 11.2527C61.0886 11.2527 61.3548 11.1408 61.5276 10.9194C61.6981 10.6956 61.7845 10.4252 61.7845 10.1035Z" fill="black"/>
<path id="Vector_25" d="M67.2933 11.7396H66.49C66.49 11.63 66.413 11.3177 66.2612 10.8025H65.1029C64.9465 11.3084 64.8671 11.6207 64.8671 11.7396H64.1128C64.1128 11.6743 64.309 11.1405 64.6989 10.1359C65.0889 9.13353 65.2851 8.58108 65.2851 8.47852H66.2332C66.2332 8.57409 66.4106 9.11721 66.7633 10.1125C67.1159 11.1056 67.2933 11.6487 67.2933 11.7396ZM66.1351 10.3247C65.8502 9.4622 65.7054 8.99833 65.7054 8.9284H65.6657C65.6657 8.99367 65.5186 9.45987 65.222 10.3247H66.1351Z" fill="black"/>
<path id="Vector_26" d="M70.2192 9.33235C70.2192 9.73096 70.0698 10.027 69.7732 10.2158C69.4766 10.4069 69.1123 10.5002 68.6803 10.5002C68.6009 10.5002 68.5449 10.4979 68.5122 10.4955C68.5122 10.8102 68.5215 11.2228 68.5402 11.7379H67.835C67.856 11.2554 67.8677 10.6867 67.8677 10.0317C67.8677 9.43026 67.856 8.91277 67.835 8.47688H68.2716C68.3324 8.47688 68.4515 8.47455 68.6289 8.46988C68.8041 8.46522 68.9559 8.46289 69.0843 8.46289C69.4019 8.46289 69.6704 8.53515 69.8899 8.67734C70.1095 8.82186 70.2192 9.04098 70.2192 9.33235ZM69.5724 9.46988C69.5724 9.11324 69.3342 8.93375 68.8601 8.93375C68.741 8.93375 68.6149 8.94541 68.4842 8.97105C68.5028 9.28573 68.5122 9.64471 68.5122 10.0433C68.5542 10.0456 68.6032 10.048 68.657 10.048C69.2664 10.048 69.5724 9.85683 69.5724 9.46988Z" fill="black"/>
<path id="Vector_27" d="M73.227 9.33235C73.227 9.73096 73.0776 10.027 72.781 10.2158C72.4844 10.4069 72.1201 10.5002 71.6881 10.5002C71.6087 10.5002 71.5527 10.4979 71.52 10.4955C71.52 10.8102 71.5293 11.2228 71.548 11.7379H70.8428C70.8638 11.2554 70.8755 10.6867 70.8755 10.0317C70.8755 9.43026 70.8638 8.91277 70.8428 8.47688H71.2795C71.3402 8.47688 71.4593 8.47455 71.6367 8.46988C71.8119 8.46522 71.9637 8.46289 72.0944 8.46289C72.412 8.46289 72.6806 8.53515 72.9001 8.67734C73.1196 8.82186 73.227 9.04098 73.227 9.33235ZM72.5802 9.46988C72.5802 9.11324 72.342 8.93375 71.8679 8.93375C71.7488 8.93375 71.6227 8.94541 71.492 8.97105C71.5106 9.28573 71.52 9.64471 71.52 10.0433C71.562 10.0456 71.6111 10.048 71.6648 10.048C72.2766 10.048 72.5802 9.85683 72.5802 9.46988Z" fill="black"/>
<path id="Vector_28" d="M78.1472 10.0477C78.1472 10.5605 77.9907 10.9847 77.6755 11.3227C77.3602 11.6607 76.9726 11.8285 76.5079 11.8285C76.0665 11.8285 75.6976 11.6747 75.3987 11.3647C75.1021 11.0546 74.9526 10.6607 74.9526 10.1852C74.9526 9.67236 75.1091 9.24812 75.4243 8.91012C75.7396 8.57213 76.1272 8.4043 76.5919 8.4043C77.0333 8.4043 77.4023 8.55814 77.7012 8.86817C77.9977 9.17586 78.1472 9.5698 78.1472 10.0477ZM77.4536 10.1222C77.4536 9.7726 77.3649 9.49054 77.1851 9.27376C77.0053 9.05698 76.7858 8.94742 76.5219 8.94742C76.2767 8.94742 76.0712 9.05698 75.9007 9.27609C75.7303 9.49521 75.6439 9.77026 75.6439 10.1059C75.6439 10.4532 75.7326 10.7353 75.9147 10.9544C76.0946 11.1712 76.3141 11.2808 76.5756 11.2808C76.8208 11.2808 77.0263 11.1712 77.1968 10.9521C77.3696 10.7283 77.4536 10.4532 77.4536 10.1222Z" fill="black"/>
<path id="Vector_29" d="M81.5472 11.7396H80.9284C80.9284 11.672 80.6995 11.3107 80.2395 10.6557C79.7584 9.9657 79.4829 9.49483 79.4175 9.24075H79.3778C79.4198 9.60672 79.4408 9.93772 79.4408 10.2314C79.4408 10.644 79.4525 11.1452 79.4759 11.7396H78.8594C78.8851 11.2221 78.8967 10.6533 78.8967 10.0333C78.8967 9.4249 78.8851 8.90509 78.8594 8.47852H79.6043C79.6043 8.56709 79.8098 8.91908 80.2231 9.53679C80.6622 10.1918 80.9144 10.637 80.9798 10.8725H81.0171C80.9774 10.4995 80.9564 10.1662 80.9564 9.87012C80.9564 9.41791 80.9447 8.95404 80.9214 8.47852H81.5495C81.5262 8.89343 81.5145 9.41092 81.5145 10.0333C81.5122 10.6603 81.5239 11.2291 81.5472 11.7396Z" fill="black"/>
</g>
</g>
<defs>
<linearGradient id="paint0_linear_11008_8713" x1="19.7722" y1="8.05492" x2="19.7722" y2="34.466" gradientUnits="userSpaceOnUse">
<stop stop-color="#257CB0"/>
<stop offset="0.2863" stop-color="#4A93B5"/>
<stop offset="0.767" stop-color="#78BCBB"/>
<stop offset="1" stop-color="#89CFBD"/>
</linearGradient>
<linearGradient id="paint1_linear_11008_8713" x1="13.1012" y1="14.6096" x2="30.0267" y2="14.6096" gradientUnits="userSpaceOnUse">
<stop stop-color="#52C1AD"/>
<stop offset="1" stop-color="#DEE89A"/>
</linearGradient>
<linearGradient id="paint2_linear_11008_8713" x1="21.5638" y1="21.2607" x2="21.5638" y2="34.5618" gradientUnits="userSpaceOnUse">
<stop stop-color="#EC413D"/>
<stop offset="0.1668" stop-color="#DA4452"/>
<stop offset="0.5748" stop-color="#B0487A"/>
<stop offset="0.8619" stop-color="#954A92"/>
<stop offset="1" stop-color="#8A4A9D"/>
</linearGradient>
<linearGradient id="paint3_linear_11008_8713" x1="31.3121" y1="17.7132" x2="31.3121" y2="24.8068" gradientUnits="userSpaceOnUse">
<stop stop-color="#F58879"/>
<stop offset="0.1194" stop-color="#F69079"/>
<stop offset="0.7128" stop-color="#FCB877"/>
<stop offset="1" stop-color="#FEC874"/>
</linearGradient>
</defs>
</svg>
