<svg width="131" height="40" viewBox="0 0 131 40" fill="none" xmlns="http://www.w3.org/2000/svg">
<g id="Button Appstore White">
<path id="Vector" d="M126.408 39.1494H4.59223C2.33582 39.1494 0.5 37.3072 0.5 35.0463V5.26232C0.5 2.99095 2.33651 1.14941 4.59223 1.14941H126.408C128.654 1.14941 130.5 2.99164 130.5 5.26232V35.0463C130.5 37.3065 128.655 39.1494 126.408 39.1494Z" fill="white" stroke="black"/>
<path id="Vector_2" d="M31.0779 20.3782C31.0498 17.4548 33.5478 16.0295 33.6601 15.9659C32.2474 13.9686 30.0581 13.6963 29.2816 13.669C27.4385 13.4784 25.6516 14.7403 24.716 14.7403C23.7617 14.7403 22.3209 13.6872 20.7585 13.7235C18.7564 13.7507 16.8853 14.8765 15.8561 16.6287C13.7324 20.1875 15.3135 25.4259 17.3437 28.3039C18.3635 29.7111 19.5516 31.2908 21.1047 31.2363C22.6203 31.1727 23.191 30.2921 25.0247 30.2921C26.8397 30.2921 27.373 31.2363 28.9635 31.2C30.5914 31.1727 31.6205 29.7837 32.6029 28.3583C33.7723 26.7423 34.2495 25.1536 34.2682 25.0719C34.2401 25.0446 31.106 23.8916 31.0779 20.3782Z" fill="black"/>
<path id="Vector_3" d="M27.6226 11.2494C28.409 10.2588 28.9514 8.90459 28.8067 7.53223C27.6678 7.58676 26.2306 8.32293 25.408 9.29539C24.6758 10.1497 24.025 11.5584 24.1967 12.8763C25.4803 12.9762 26.8 12.2219 27.6226 11.2494Z" fill="black"/>
<g id="Group">
<path id="Vector_4" d="M52.607 30.6639H50.5113L49.3665 27.1089H45.3782L44.2796 30.6639H42.2393L46.1906 18.5625H48.6372L52.607 30.6639ZM49.0065 25.6269L47.9725 22.472C47.8617 22.1447 47.6586 21.3901 47.3539 20.19H47.317C47.197 20.7082 47.0031 21.4628 46.7353 22.472L45.7106 25.6269H49.0065Z" fill="black"/>
<path id="Vector_5" d="M62.7532 26.1996C62.7532 27.6815 62.347 28.8544 61.5253 29.7181C60.796 30.4819 59.882 30.8637 58.7926 30.8637C57.6201 30.8637 56.7707 30.4546 56.263 29.6272V34.2095H54.2965V24.8085C54.2965 23.872 54.2688 22.9174 54.2227 21.9445H55.9583L56.0691 23.3265H56.106C56.7615 22.2809 57.7586 21.7627 59.0973 21.7627C60.1405 21.7627 61.0176 22.1718 61.71 22.981C62.4024 23.7993 62.7532 24.8721 62.7532 26.1996ZM60.7498 26.2723C60.7498 25.4267 60.5559 24.7267 60.1682 24.1721C59.7435 23.5993 59.1711 23.3083 58.451 23.3083C57.9617 23.3083 57.5278 23.472 57.1308 23.7811C56.7338 24.0993 56.4753 24.5175 56.3553 25.0267C56.2907 25.2631 56.263 25.4631 56.263 25.6177V27.0724C56.263 27.7088 56.4569 28.2452 56.8538 28.6817C57.2508 29.1181 57.7586 29.3363 58.3956 29.3363C59.1342 29.3363 59.7158 29.0544 60.1313 28.4907C60.5467 27.9361 60.7498 27.1906 60.7498 26.2723Z" fill="black"/>
<path id="Vector_6" d="M72.9456 26.1996C72.9456 27.6815 72.5394 28.8544 71.7177 29.7181C70.9884 30.4819 70.0744 30.8637 68.985 30.8637C67.8125 30.8637 66.9724 30.4546 66.4554 29.6272V34.2095H64.4889V24.8085C64.4889 23.872 64.4612 22.9174 64.415 21.9445H66.1507L66.2615 23.3265H66.2984C66.9539 22.2809 67.951 21.7627 69.2896 21.7627C70.3329 21.7627 71.2099 22.1718 71.9024 22.981C72.5948 23.7993 72.9456 24.8721 72.9456 26.1996ZM70.9422 26.2723C70.9422 25.4267 70.7483 24.7267 70.3606 24.1721C69.9359 23.5993 69.3635 23.3083 68.6526 23.3083C68.1633 23.3083 67.7294 23.472 67.3324 23.7811C66.9354 24.0993 66.6769 24.5175 66.5569 25.0267C66.4923 25.2631 66.4646 25.4631 66.4646 25.6177V27.0724C66.4646 27.7088 66.6585 28.2452 67.0555 28.6817C67.4524 29.1181 67.9602 29.3363 68.5972 29.3363C69.3358 29.3363 69.9174 29.0544 70.3329 28.4907C70.7299 27.9361 70.9422 27.1906 70.9422 26.2723Z" fill="black"/>
<path id="Vector_7" d="M84.3383 27.2725C84.3383 28.2998 83.969 29.1363 83.2489 29.7818C82.4457 30.491 81.3286 30.8456 79.9068 30.8456C78.5866 30.8456 77.5249 30.591 76.7217 30.091L77.1741 28.4726C78.0327 28.9726 78.9836 29.2272 80.0176 29.2272C80.7562 29.2272 81.3378 29.0636 81.7532 28.7363C82.1687 28.4089 82.3718 27.9634 82.3718 27.4179C82.3718 26.927 82.1964 26.5178 81.864 26.1814C81.5224 25.845 80.9593 25.5359 80.1653 25.245C78.0142 24.454 76.934 23.2993 76.934 21.7809C76.934 20.7899 77.3125 19.9716 78.0696 19.3443C78.8266 18.7079 79.8329 18.3896 81.0885 18.3896C82.2056 18.3896 83.1381 18.5806 83.8766 18.9624L83.3781 20.5444C82.6857 20.1717 81.8917 19.9898 81.0147 19.9898C80.3222 19.9898 79.7775 20.1626 79.3898 20.4899C79.0574 20.7899 78.8912 21.1536 78.8912 21.59C78.8912 22.0719 79.0851 22.4628 79.4544 22.772C79.7775 23.0629 80.3776 23.372 81.2362 23.7084C82.2979 24.1267 83.0734 24.6176 83.572 25.1813C84.089 25.7359 84.3383 26.436 84.3383 27.2725Z" fill="black"/>
<path id="Vector_8" d="M90.8652 23.3992H88.6957V27.636C88.6957 28.7088 89.0742 29.2544 89.8405 29.2544C90.1913 29.2544 90.4867 29.2271 90.7175 29.1634L90.7729 30.6363C90.3852 30.7818 89.8774 30.8545 89.2404 30.8545C88.4649 30.8545 87.8555 30.6181 87.4216 30.1545C86.9877 29.6908 86.7661 28.8998 86.7661 27.7997V23.3992H85.4736V21.9445H86.7661V20.3443L88.6957 19.7715V21.9445H90.8652V23.3992Z" fill="black"/>
<path id="Vector_9" d="M100.633 26.2356C100.633 27.5721 100.245 28.6813 99.4697 29.536C98.6572 30.4179 97.577 30.8634 96.2291 30.8634C94.9274 30.8634 93.8934 30.4361 93.1179 29.5905C92.3424 28.745 91.9639 27.6721 91.9639 26.3811C91.9639 25.0264 92.3608 23.9263 93.1548 23.0625C93.9488 22.1988 95.029 21.7715 96.3769 21.7715C97.6786 21.7715 98.7218 22.1988 99.5066 23.0444C100.254 23.8626 100.633 24.9264 100.633 26.2356ZM98.5926 26.2811C98.5926 25.481 98.4172 24.7991 98.0664 24.2263C97.6509 23.5353 97.06 23.1898 96.2938 23.1898C95.509 23.1898 94.8997 23.5353 94.4843 24.2263C94.1334 24.7991 93.958 25.4992 93.958 26.3174C93.958 27.1175 94.1334 27.8085 94.4843 28.3722C94.9089 29.0632 95.4998 29.4087 96.2753 29.4087C97.0323 29.4087 97.614 29.0541 98.0479 28.354C98.4079 27.7722 98.5926 27.0812 98.5926 26.2811Z" fill="black"/>
<path id="Vector_10" d="M107.031 23.6444C106.837 23.6081 106.625 23.5899 106.412 23.5899C105.72 23.5899 105.185 23.8444 104.806 24.3627C104.483 24.8173 104.317 25.3901 104.317 26.0811V30.6634H102.35V24.69C102.35 23.6808 102.332 22.7716 102.295 21.9442H104.012L104.086 23.6171H104.141C104.354 23.0444 104.677 22.5807 105.129 22.2352C105.563 21.926 106.043 21.7715 106.551 21.7715C106.736 21.7715 106.902 21.7806 107.04 21.8079L107.031 23.6444Z" fill="black"/>
<path id="Vector_11" d="M115.838 25.8907C115.838 26.2362 115.811 26.5272 115.765 26.7726H109.856C109.874 27.6364 110.161 28.291 110.715 28.7456C111.213 29.1547 111.859 29.3548 112.644 29.3548C113.521 29.3548 114.315 29.2184 115.035 28.9456L115.34 30.2912C114.5 30.6549 113.512 30.8276 112.367 30.8276C110.992 30.8276 109.911 30.4276 109.127 29.6366C108.342 28.8365 107.954 27.7728 107.954 26.4362C107.954 25.1179 108.314 24.0269 109.053 23.1541C109.819 22.2176 110.853 21.7539 112.155 21.7539C113.429 21.7539 114.398 22.2176 115.054 23.1541C115.571 23.8905 115.838 24.7997 115.838 25.8907ZM113.955 25.3907C113.964 24.8179 113.844 24.3178 113.577 23.8996C113.235 23.3632 112.709 23.0904 112.007 23.0904C111.361 23.0904 110.844 23.3541 110.438 23.8814C110.105 24.2996 109.911 24.7997 109.856 25.3907H113.955Z" fill="black"/>
</g>
<g id="Group_2">
<g id="Group_3">
<path id="Vector_12" d="M44.7968 14.2893C44.2521 14.2893 43.772 14.262 43.3843 14.2166V8.37045C43.892 8.28862 44.446 8.24316 45.0461 8.24316C47.308 8.24316 48.342 9.33419 48.342 11.1162C48.342 13.1801 47.1141 14.2893 44.7968 14.2893ZM45.1292 8.99779C44.8245 8.99779 44.566 9.01598 44.3537 9.06144V13.5074C44.4737 13.5256 44.6952 13.5347 45.0091 13.5347C46.4863 13.5347 47.3264 12.7073 47.3264 11.1526C47.3264 9.76152 46.5602 8.99779 45.1292 8.99779Z" fill="black"/>
<path id="Vector_13" d="M51.5825 14.3346C50.3085 14.3346 49.4868 13.3981 49.4868 12.1252C49.4868 10.7978 50.3269 9.86133 51.6564 9.86133C52.912 9.86133 53.7521 10.7523 53.7521 12.0616C53.7521 13.3981 52.8843 14.3346 51.5825 14.3346ZM51.6195 10.5614C50.9178 10.5614 50.4747 11.2069 50.4747 12.107C50.4747 12.9889 50.9363 13.6345 51.6102 13.6345C52.2934 13.6345 52.7458 12.9435 52.7458 12.0888C52.755 11.2069 52.3026 10.5614 51.6195 10.5614Z" fill="black"/>
<path id="Vector_14" d="M61.0087 9.95215L59.6423 14.2435H58.756L58.1929 12.3797C58.0451 11.916 57.9344 11.4523 57.842 10.9977H57.8236C57.7497 11.4614 57.6205 11.9342 57.4727 12.3797L56.8727 14.2435H55.9771L54.6938 9.95215H55.6909L56.1802 11.9887C56.3003 12.4706 56.3926 12.9343 56.4757 13.3616H56.4941C56.568 12.9979 56.6788 12.5524 56.8542 11.9978L57.4727 9.95215H58.2575L58.8483 11.9524C58.9961 12.4342 59.1068 12.9161 59.1992 13.3616H59.2269C59.2915 12.9252 59.3838 12.4524 59.5223 11.9524L60.0485 9.95215H61.0087Z" fill="black"/>
<path id="Vector_15" d="M66.0218 14.2345H65.0525V11.7706C65.0525 11.016 64.757 10.6341 64.1754 10.6341C63.603 10.6341 63.206 11.116 63.206 11.6797V14.2345H62.2366V11.1706C62.2366 10.7887 62.2274 10.3887 62.1997 9.94316H63.0491L63.0952 10.6069H63.1229C63.3814 10.1523 63.9077 9.86133 64.5078 9.86133C65.4217 9.86133 66.0218 10.5523 66.0218 11.6706V14.2345Z" fill="black"/>
<path id="Vector_16" d="M68.6896 14.2347H67.7202V7.97949H68.6896V14.2347Z" fill="black"/>
<path id="Vector_17" d="M72.2163 14.3346C70.9423 14.3346 70.1206 13.3981 70.1206 12.1252C70.1206 10.7978 70.9607 9.86133 72.2902 9.86133C73.5457 9.86133 74.3859 10.7523 74.3859 12.0616C74.3859 13.3981 73.5181 14.3346 72.2163 14.3346ZM72.2532 10.5614C71.5516 10.5614 71.1084 11.2069 71.1084 12.107C71.1084 12.9889 71.5701 13.6345 72.244 13.6345C72.9272 13.6345 73.3796 12.9435 73.3796 12.0888C73.3796 11.2069 72.9364 10.5614 72.2532 10.5614Z" fill="black"/>
<path id="Vector_18" d="M78.1991 14.2345L78.1253 13.7436H78.0976C77.8021 14.1436 77.3682 14.3346 76.8235 14.3346C76.048 14.3346 75.4849 13.7981 75.4849 13.0708C75.4849 12.0161 76.4173 11.4615 78.0329 11.4615V11.3888C78.0329 10.8251 77.7283 10.5432 77.1282 10.5432C76.7035 10.5432 76.325 10.6523 75.9926 10.8614L75.7988 10.2341C76.205 9.98861 76.7035 9.86133 77.2944 9.86133C78.4299 9.86133 79.0023 10.4523 79.0023 11.6343V13.2162C79.0023 13.6527 79.0208 13.98 79.067 14.2436L78.1991 14.2345ZM78.0699 12.0979C76.9989 12.0979 76.4542 12.3525 76.4542 12.9617C76.4542 13.4163 76.7312 13.6345 77.119 13.6345C77.6083 13.6345 78.0699 13.2617 78.0699 12.7617V12.0979Z" fill="black"/>
<path id="Vector_19" d="M83.7104 14.2347L83.6643 13.5437H83.6366C83.3596 14.062 82.8888 14.3257 82.2425 14.3257C81.1901 14.3257 80.4146 13.4165 80.4146 12.1345C80.4146 10.798 81.2178 9.85243 82.3256 9.85243C82.9072 9.85243 83.3227 10.0434 83.5535 10.4343H83.572V7.97949H84.5413V13.0801C84.5413 13.4983 84.5506 13.8801 84.5783 14.2347H83.7104ZM83.5627 11.7163C83.5627 11.1162 83.1565 10.6071 82.5472 10.6071C81.8271 10.6071 81.3932 11.2344 81.3932 12.1163C81.3932 12.98 81.8455 13.571 82.5287 13.571C83.138 13.571 83.5627 13.0528 83.5627 12.4345V11.7163Z" fill="black"/>
<path id="Vector_20" d="M90.6719 14.3346C89.3978 14.3346 88.5762 13.3981 88.5762 12.1252C88.5762 10.7978 89.4163 9.86133 90.7457 9.86133C92.0013 9.86133 92.8415 10.7523 92.8415 12.0616C92.8415 13.3981 91.9736 14.3346 90.6719 14.3346ZM90.7088 10.5614C90.0072 10.5614 89.564 11.2069 89.564 12.107C89.564 12.9889 90.0256 13.6345 90.6996 13.6345C91.3828 13.6345 91.8351 12.9435 91.8351 12.0888C91.8444 11.2069 91.392 10.5614 90.7088 10.5614Z" fill="black"/>
<path id="Vector_21" d="M98.0482 14.2345H97.0788V11.7706C97.0788 11.016 96.7834 10.6341 96.2018 10.6341C95.6294 10.6341 95.2324 11.116 95.2324 11.6797V14.2345H94.263V11.1706C94.263 10.7887 94.2538 10.3887 94.2261 9.94316H95.0754L95.1216 10.6069H95.1493C95.4078 10.1523 95.934 9.86133 96.5249 9.86133C97.4389 9.86133 98.039 10.5523 98.039 11.6706V14.2345H98.0482Z" fill="black"/>
<path id="Vector_22" d="M104.557 10.6619H103.495V12.7439C103.495 13.2713 103.68 13.5349 104.058 13.5349C104.225 13.5349 104.372 13.5168 104.483 13.4895L104.511 14.2168C104.326 14.2896 104.077 14.3259 103.763 14.3259C102.997 14.3259 102.544 13.9077 102.544 12.8258V10.6619H101.907V9.95273H102.544V9.16173L103.495 8.87988V9.94364H104.557V10.6619Z" fill="black"/>
<path id="Vector_23" d="M109.681 14.2347H108.711V11.789C108.711 11.0253 108.416 10.6343 107.834 10.6343C107.336 10.6343 106.865 10.9707 106.865 11.6526V14.2347H105.896V7.97949H106.865V10.5525H106.883C107.188 10.0888 107.631 9.85243 108.194 9.85243C109.118 9.85243 109.681 10.5616 109.681 11.6799V14.2347Z" fill="black"/>
<path id="Vector_24" d="M114.925 12.3252H112.026C112.044 13.1344 112.589 13.5981 113.401 13.5981C113.826 13.5981 114.223 13.5254 114.574 13.3981L114.722 14.0618C114.306 14.2345 113.826 14.3255 113.263 14.3255C111.906 14.3255 111.093 13.4799 111.093 12.1616C111.093 10.8433 111.915 9.86133 113.152 9.86133C114.269 9.86133 114.962 10.6705 114.962 11.8979C114.962 12.0616 114.952 12.207 114.925 12.3252ZM114.038 11.6433C114.038 10.9796 113.697 10.5159 113.078 10.5159C112.524 10.5159 112.081 10.9887 112.016 11.6433H114.038Z" fill="black"/>
</g>
</g>
</g>
</svg>
