<svg xmlns="http://www.w3.org/2000/svg" version="1.1" xmlns:xlink="http://www.w3.org/1999/xlink" width="32" height="32" x="0" y="0" viewBox="0 0 500 500" style="enable-background:new 0 0 512 512" xml:space="preserve" class=""><g><path fill-rule="evenodd" d="M173.748 201.798c-10.741-10.736-10.741-28.2 0-38.93 15.148-15.1 31.667-7.321 43.674 4.716a6.276 6.276 0 0 0 8.888 0c9.051-9.029 26.717-21.657 43.674-4.716 10.741 10.731 10.741 28.195 0 38.93l-48.09 48.107zm54.415 59.633 50.762-50.713c15.648-15.654 15.648-41.122 0-56.77v-.005c-16.248-16.243-37.731-15.856-57.032.594-19.356-16.45-40.784-16.837-57.032-.589-15.649 15.649-15.649 41.117 0 56.77l50.707 50.713a8.882 8.882 0 0 0 12.595 0zm80.369 113.868c0 3.479-2.835 6.308-6.325 6.308h-80.314c-3.49 0-6.325-2.83-6.325-6.308 0-3.49 2.835-6.308 6.325-6.308h80.314c3.49 0 6.325 2.819 6.325 6.308zm-146.888 13.768c-7.633 0-13.795-6.178-13.795-13.767 0-7.601 6.161-13.778 13.795-13.778 7.579 0 13.74 6.178 13.74 13.778 0 7.589-6.162 13.767-13.74 13.767zm0-40.168c-14.558 0-26.39 11.843-26.39 26.401 0 14.547 11.832 26.39 26.39 26.39s26.39-11.843 26.39-26.39c-.001-14.559-11.832-26.401-26.39-26.401zm146.888-42.78c0 3.49-2.835 6.308-6.325 6.308h-80.314c-3.49 0-6.325-2.819-6.325-6.308 0-3.479 2.835-6.309 6.325-6.309h80.314c3.49 0 6.325 2.83 6.325 6.309zm-146.888 13.778c-7.633 0-13.795-6.183-13.795-13.778 0-7.59 6.161-13.773 13.795-13.773 7.579 0 13.74 6.183 13.74 13.773 0 7.595-6.162 13.778-13.74 13.778zm0-40.168c-14.558 0-26.39 11.843-26.39 26.39 0 14.552 11.832 26.395 26.39 26.395s26.39-11.843 26.39-26.395c-.001-14.547-11.832-26.39-26.39-26.39zm174.423 135.395V127.945c0-7.164-5.834-12.993-13.031-12.993h-202.34c-7.197 0-13.031 5.829-13.031 12.993v287.179c0 7.164 5.834 12.998 13.031 12.998h202.339c7.198 0 13.032-5.834 13.032-12.998zM95.07 127.945c0-14.122 11.505-25.61 25.626-25.61h173.332V84.876c0-7.164-5.834-12.993-13.031-12.993H78.658c-7.197 0-13.031 5.829-13.031 12.993v287.179c0 7.164 5.834 12.993 13.031 12.993H95.07zm227.965-25.61h-16.412V84.876c0-14.122-11.45-25.615-25.626-25.615H78.658c-14.122 0-25.626 11.494-25.626 25.615v287.179c0 14.122 11.505 25.61 25.626 25.61H95.07v17.459c0 14.122 11.505 25.615 25.626 25.615h202.339c14.176 0 25.626-11.494 25.626-25.615V127.945c.001-14.122-11.449-25.61-25.626-25.61zm91.819 272.703-16.957-38.592V187.883h36.477v148.382zm-12.541-258.565h27.644a4.403 4.403 0 0 1 4.416 4.411v54.377h-36.477v-54.377a4.405 4.405 0 0 1 4.417-4.411zm27.644-12.617h-27.644c-9.378 0-17.012 7.633-17.012 17.028V337.77c0 .872.163 1.728.491 2.53l22.846 52.065c2.161 4.935 9.058 5.023 11.45.311l26.226-52.071a6.382 6.382 0 0 0 .654-2.835V120.884c.001-9.394-7.633-17.028-17.011-17.028z" clip-rule="evenodd" fill="#0048AA" opacity="1" data-original="#000000" class=""></path></g></svg>